<svg id="Layer_1" enable-background="new 0 0 511.976 511.976" height="512" viewBox="0 0 511.976 511.976" width="512" xmlns="http://www.w3.org/2000/svg"><g><g><path d="m181.035 215.987c0-7.676-2.898-14.688-7.657-20 17.205-18.924 3.483-50.093-22.343-50h-20c-5.522 0-10 4.477-10 10v80c0 5.523 4.478 10 10 10h20c16.542.001 30-13.457 30-30zm-30 10.001h-10v-20h10c13.27.55 13.259 19.454 0 20zm0-40.001h-10v-20h10c13.269.551 13.259 19.454 0 20z"/><path d="m206.035 245.987h35c13.268-.529 13.258-19.476 0-20h-25v-20h11c13.268-.529 13.258-19.476 0-20h-11v-20h25c13.268-.529 13.258-19.476 0-20h-35c-5.522 0-10 4.477-10 10v80c0 5.523 4.477 10 10 10z"/><path d="m302.612 243.716c7.332-3.037 13.034-8.729 16.056-16.025 6.256-15.105-.942-32.483-16.047-38.74l-10.634-4.404c-4.916-2.036-7.258-7.692-5.222-12.609 2.035-4.916 7.692-7.258 12.608-5.224l5.315 2.203c5.105 2.115 10.954-.309 13.066-5.411 2.114-5.103-.309-10.952-5.411-13.066l-5.317-2.204c-15.109-6.255-32.484.945-38.74 16.048-6.256 15.104.942 32.483 16.046 38.739l10.635 4.405c4.916 2.036 7.258 7.692 5.222 12.61-.978 2.361-2.835 4.208-5.23 5.2-2.396.992-5.016 1-7.378.021l-5.317-2.202c-12.46-4.584-19.702 12.919-7.652 18.479l5.317 2.202c7.31 3.028 15.366 3.009 22.683-.022z"/><path d="m380.918 165.987c13.268-.529 13.258-19.476 0-20h-35c-13.268.529-13.258 19.476 0 20h7.5v70c.529 13.268 19.476 13.258 20 0v-70z"/><path d="m178.475 355.989v-20.001h20v20.001c.528 13.268 19.476 13.258 20 0v-60c-1.653-39.808-58.362-39.778-60 0v60c.529 13.268 19.477 13.258 20 0zm10-70c5.514 0 10 4.486 10 10v19.999h-20v-19.999c0-5.514 4.486-10 10-10z"/><path d="m243.476 265.989c-5.522 0-10 4.477-10 10v80c0 5.523 4.478 10 10 10h35c13.268-.529 13.258-19.476 0-20h-25v-70c0-5.523-4.477-10-10-10z"/><path d="m348.478 265.989c-5.522 0-10 4.477-10 10v60c-.551 13.269-19.455 13.258-20.001 0v-60c-.528-13.268-19.476-13.258-20 0v60c1.652 39.808 58.363 39.778 60.001 0v-60c0-5.523-4.478-10-10-10z"/><path d="m418.479 285.989c13.268-.529 13.258-19.476 0-20h-35c-5.522 0-10 4.477-10 10v80c0 5.523 4.478 10 10 10h35c13.268-.529 13.258-19.476 0-20h-25v-20h11c13.268-.529 13.258-19.476 0-20h-11v-20z"/><path d="m135.9 266.288c-5.354-1.337-10.787 1.917-12.127 7.276l-10.299 41.194-10.299-41.194c-1.34-5.358-6.769-8.615-12.127-7.276-5.357 1.34-8.615 6.769-7.275 12.127l20 80c2.571 10.031 16.834 10.026 19.402 0l20-80c1.34-5.358-1.918-10.787-7.275-12.127z"/><path d="m509.047 248.917-47.903-47.903 17.534-65.438c1.493-5.162-1.854-10.96-7.071-12.248l-65.438-17.534-17.534-65.438c-1.43-5.334-6.915-8.501-12.247-7.071l-65.437 17.535-47.904-47.903c-3.725-3.873-10.418-3.873-14.143 0l-47.902 47.903-65.438-17.533c-5.337-1.429-10.817 1.737-12.247 7.071l-17.534 65.438-65.437 17.534c-5.217 1.288-8.564 7.086-7.071 12.248l17.534 65.438-47.904 47.901c-3.873 3.724-3.873 10.419 0 14.143l47.904 47.903-17.534 65.437c-1.493 5.162 1.854 10.96 7.071 12.248l65.437 17.534 17.534 65.438c1.429 5.334 6.915 8.502 12.247 7.071l65.438-17.533 47.902 47.903c3.725 3.874 10.418 3.873 14.143 0l47.903-47.903 65.438 17.533c5.339 1.432 10.818-1.737 12.247-7.071l17.534-65.438 65.438-17.534c5.217-1.288 8.564-7.086 7.071-12.248l-17.534-65.438 47.903-47.903c3.906-3.905 3.906-10.237 0-14.142zm-66.128 51.986c-2.526 2.526-3.513 6.208-2.588 9.659l16.439 61.354-61.354 16.44c-3.451.924-6.146 3.62-7.071 7.071l-16.44 61.355-61.354-16.439c-3.452-.927-7.133.062-9.659 2.588l-44.915 44.915-44.914-44.915c-2.528-2.536-6.248-3.511-9.659-2.588l-61.355 16.439-16.44-61.355c-.925-3.451-3.62-6.146-7.071-7.071l-61.354-16.44 16.44-61.355c.925-3.451-.062-7.133-2.588-9.66l-44.915-44.914 44.915-44.915c2.526-2.526 3.513-6.208 2.588-9.66l-16.44-61.355 61.354-16.44c3.451-.924 6.146-3.62 7.071-7.071l16.44-61.355 61.355 16.439c3.453.927 7.133-.062 9.659-2.588l44.914-44.915 44.915 44.915c2.526 2.525 6.211 3.514 9.659 2.588l61.354-16.439 16.44 61.355c.925 3.451 3.62 6.146 7.071 7.071l61.354 16.44-16.439 61.354c-.925 3.451.062 7.133 2.588 9.659l44.914 44.916z"/><path d="m220.972 125.986h115.004c13.268-.529 13.258-19.476 0-20h-115.004c-13.268.528-13.258 19.476 0 20z"/><path d="m335.976 385.99h-160c-13.268.529-13.258 19.476 0 20h160c13.268-.528 13.258-19.476 0-20z"/><path d="m175.976 125.986c13.268-.529 13.258-19.476 0-20h-.007c-13.267.53-13.25 19.478.007 20z"/></g></g></svg>