<svg id="Layer_3" enable-background="new 0 0 64 64" height="512" viewBox="0 0 64 64" width="512" xmlns="http://www.w3.org/2000/svg"><path d="m28.739 35.74c-2.587 1.44-5.567 2.26-8.739 2.26-9.941 0-18-8.059-18-18s8.059-18 18-18 18 8.059 18 18c0 3.172-.82 6.151-2.26 8.739" fill="#f9d18b"/><circle cx="19" cy="19" fill="#8892a0" r="10"/><path d="m21.05 11.151h9.899v29.698h-9.899z" fill="#2b74ca" transform="matrix(.707 -.707 .707 .707 -10.77 26)"/><path d="m38 34 14 14-4 4-14-14" fill="#f5b953"/><g fill="#8bd2f5"><path d="m52 7c2.761 0 5 2.239 5 5 0-2.761 2.239-5 5-5-2.761 0-5-2.239-5-5 0 2.761-2.239 5-5 5z"/><path d="m44 27c2.761 0 5 2.239 5 5 0-2.761 2.239-5 5-5-2.761 0-5-2.239-5-5 0 2.761-2.239 5-5 5z"/><path d="m2 45c2.761 0 5 2.239 5 5 0-2.761 2.239-5 5-5-2.761 0-5-2.239-5-5 0 2.761-2.239 5-5 5z"/></g><path d="m9.338 24.263c-.875-1.605-1.338-3.424-1.338-5.263 0-6.065 4.935-11 11-11 1.83 0 3.644.459 5.244 1.328l-.955 1.758c-1.308-.711-2.791-1.086-4.289-1.086-4.963 0-9 4.037-9 9 0 1.505.378 2.993 1.094 4.304z"/><path d="m33 41c-.256 0-.512-.098-.707-.293l-21-21c-.391-.391-.391-1.023 0-1.414l7-7c.391-.391 1.023-.391 1.414 0l21 21c.391.391.391 1.023 0 1.414l-7 7c-.195.195-.451.293-.707.293zm-19.586-22 19.586 19.586 5.586-5.586-19.586-19.586z"/><path d="m48 53c-.256 0-.512-.098-.707-.293l-14-14 1.414-1.414 13.293 13.293 2.586-2.586-13.293-13.293 1.414-1.414 14 14c.391.391.391 1.023 0 1.414l-4 4c-.195.195-.451.293-.707.293z"/><path d="m59.5 63h-22.5c-3.309 0-6-2.691-6-6 0-2.206-1.794-4-4-4h-15v-2h15c3.309 0 6 2.691 6 6 0 2.206 1.794 4 4 4h22.5c.827 0 1.5-.673 1.5-1.5s-.673-1.5-1.5-1.5c-1.879 0-3.646-.731-4.975-2.061l-5.232-5.232 1.414-1.414 5.232 5.232c.952.952 2.216 1.475 3.561 1.475 1.93 0 3.5 1.57 3.5 3.5s-1.57 3.5-3.5 3.5z"/><path d="m18.5 33c-1.879 0-3.646-.731-4.975-2.061l-5.232-5.232c-.391-.391-.391-1.023 0-1.414l5-5 1.414 1.414-4.293 4.293 4.525 4.525c.952.952 2.216 1.475 3.561 1.475s2.609-.523 3.561-1.475l7.465-7.465c.951-.951 1.474-2.215 1.474-3.56s-.523-2.609-1.475-3.561l-4.525-4.525-4.293 4.293-1.414-1.414 5-5c.391-.391 1.023-.391 1.414 0l5.232 5.232c1.33 1.329 2.061 3.096 2.061 4.975s-.731 3.646-2.061 4.975l-7.465 7.465c-1.328 1.329-3.095 2.06-4.974 2.06z"/><path d="m20 39c-10.477 0-19-8.523-19-19s8.523-19 19-19 19 8.523 19 19c0 3.229-.825 6.419-2.386 9.226l-1.748-.973c1.396-2.51 2.134-5.363 2.134-8.253 0-9.374-7.626-17-17-17s-17 7.626-17 17 7.626 17 17 17c2.89 0 5.743-.738 8.253-2.134l.973 1.748c-2.807 1.561-5.997 2.386-9.226 2.386z"/><path d="m57 13c-.553 0-1-.447-1-1 0-2.206-1.794-4-4-4-.553 0-1-.447-1-1s.447-1 1-1c2.206 0 4-1.794 4-4 0-.553.447-1 1-1s1 .447 1 1c0 2.206 1.794 4 4 4 .553 0 1 .447 1 1s-.447 1-1 1c-2.206 0-4 1.794-4 4 0 .553-.447 1-1 1zm-1.687-6c.668.444 1.243 1.019 1.687 1.687.444-.668 1.019-1.243 1.687-1.687-.668-.444-1.243-1.019-1.687-1.687-.444.668-1.019 1.243-1.687 1.687z"/><path d="m49 33c-.553 0-1-.447-1-1 0-2.206-1.794-4-4-4-.553 0-1-.447-1-1s.447-1 1-1c2.206 0 4-1.794 4-4 0-.553.447-1 1-1s1 .447 1 1c0 2.206 1.794 4 4 4 .553 0 1 .447 1 1s-.447 1-1 1c-2.206 0-4 1.794-4 4 0 .553-.447 1-1 1zm-1.687-6c.668.444 1.242 1.019 1.687 1.687.444-.668 1.019-1.242 1.687-1.687-.668-.444-1.242-1.019-1.687-1.687-.444.668-1.019 1.243-1.687 1.687z"/><path d="m7 51c-.553 0-1-.447-1-1 0-2.206-1.794-4-4-4-.553 0-1-.447-1-1s.447-1 1-1c2.206 0 4-1.794 4-4 0-.553.447-1 1-1s1 .447 1 1c0 2.206 1.794 4 4 4 .553 0 1 .447 1 1s-.447 1-1 1c-2.206 0-4 1.794-4 4 0 .553-.447 1-1 1zm-1.687-6c.668.444 1.243 1.019 1.687 1.687.444-.668 1.019-1.243 1.687-1.687-.668-.444-1.243-1.019-1.687-1.687-.444.668-1.019 1.243-1.687 1.687z"/></svg>